<svg width="605" height="516" viewBox="0 0 605 516" fill="none" xmlns="http://www.w3.org/2000/svg">
<path d="M127.093 65.5986C146.979 66.8724 155.392 53.3706 164.698 35.92C190.321 -11.8459 247.303 -7.2604 266.551 22.1634C280.064 43.0531 309.383 38.7223 332.966 30.5703C356.294 22.5456 395.939 14.7756 427.426 24.4562C454.961 32.863 466.306 63.0511 491.419 61.1405C546.233 57.0645 573.895 111.199 563.952 134.764C557.451 150.176 554.264 167.372 559.491 183.294C565.354 200.745 578.612 214.628 589.32 229.531C600.028 244.562 608.696 263.286 603.342 280.864C598.753 295.894 585.241 306.339 576.7 319.714C550.44 361.111 576.445 424.417 541.517 458.936C516.531 483.646 475.739 477.915 440.683 482.627C411.491 486.576 384.084 498.804 355.02 503.645C296.253 513.325 236.722 491.926 177.191 491.416C156.157 491.162 134.741 493.582 114.473 488.359C87.3204 481.354 64.2473 460.464 54.8141 434.352C41.8116 398.305 54.1767 356.525 39.3895 321.115C27.4068 292.328 -1.78515 268.763 -0.000489034 237.684C1.14679 218.322 14.4043 202.146 23.4551 184.95C37.095 159.347 19.2484 58.3382 127.093 65.5986ZM300.715 18.8517C295.488 18.8517 291.282 22.0361 291.282 26.1121C291.282 30.1881 295.488 32.9904 300.715 33.3725C317.669 34.5189 317.669 27.6406 317.669 23.5646C317.669 17.1958 305.941 18.8517 300.715 18.8517ZM473.572 49.804C478.161 53.4979 483.897 55.7907 489.889 56.1728C491.419 56.3002 493.203 56.1728 494.35 55.1538C495.88 53.8801 496.008 51.3325 494.733 49.9314C493.841 49.0398 492.693 48.6576 491.546 48.1481C489.634 47.3839 487.722 46.2375 486.575 44.4542C486.192 43.9447 485.937 43.3078 485.427 43.0531C482.113 41.1425 467.581 44.8364 473.572 49.804ZM502.509 56.1728C504.039 56.6823 505.696 56.1728 507.098 55.6633C508.118 55.4086 509.265 54.6443 509.01 53.6253C508.883 53.1158 508.5 52.861 507.99 52.6063C505.951 51.5873 503.401 50.823 501.489 52.0968C499.577 53.6253 500.979 55.6633 502.509 56.1728ZM571.728 192.72C571.983 195.013 573.385 196.923 574.788 198.706C577.337 202.273 580.014 205.84 583.456 208.642C584.858 209.788 586.643 210.807 588.428 210.935C590.085 210.935 591.742 210.17 593.144 209.279C596.459 206.859 598.753 203.037 599.263 198.961C599.9 193.357 597.351 187.88 594.292 183.167C592.379 180.237 590.212 177.307 587.025 175.651C581.799 172.977 578.23 175.269 576.827 179.982C575.425 184.186 571.218 188.007 571.728 192.72ZM10.325 323.408C7.52058 325.828 10.0701 332.961 10.835 337.674C11.0899 339.075 11.4723 340.603 12.3647 341.75C13.6394 343.278 15.679 343.915 17.5912 344.425C21.033 345.444 25.1122 346.208 27.6618 343.915C29.5739 342.132 29.8288 339.33 29.8288 336.655C29.8288 334.234 29.7014 331.942 29.4464 329.522C29.3189 328.375 29.1915 327.229 28.5541 326.21C27.7892 324.936 26.387 324.299 25.1122 323.662C20.1407 321.752 13.1295 320.86 10.325 323.408ZM180.123 502.626C178.466 503.008 176.553 503.645 176.298 505.3C176.044 506.702 177.191 507.848 178.338 508.612C187.389 515.363 199.627 515.745 210.972 516C212.247 516 213.649 516 214.924 515.49C217.346 514.471 218.493 511.287 217.346 508.867C216.963 507.975 216.326 507.338 215.561 506.574C206.51 497.785 191.468 500.333 180.123 502.626ZM406.647 498.04C396.449 505.555 406.775 512.179 419.65 507.211C426.661 504.536 433.29 501.861 440.428 500.078C442.723 499.441 456.618 496.511 456.618 493.327C456.618 485.048 440.938 486.958 430.995 488.359C423.219 489.633 415.061 491.926 406.647 498.04Z" fill="#ECF3FF"/>
<path d="M214.287 476.514C241.462 476.514 263.492 474.461 263.492 471.928C263.492 469.396 241.462 467.343 214.287 467.343C187.111 467.343 165.081 469.396 165.081 471.928C165.081 474.461 187.111 476.514 214.287 476.514Z" fill="#C8DBFB"/>
<path d="M467.454 476.514C494.629 476.514 516.659 474.461 516.659 471.928C516.659 469.396 494.629 467.343 467.454 467.343C440.278 467.343 418.248 469.396 418.248 471.928C418.248 474.461 440.278 476.514 467.454 476.514Z" fill="#C8DBFB"/>
<path d="M571.474 148.011C571.346 147.12 571.219 146.355 570.964 145.464" stroke="#C8DBFB" stroke-linecap="round" stroke-linejoin="round"/>
<path d="M569.817 140.623C561.021 110.69 532.976 113.62 507.736 113.62C480.456 113.62 58.3839 114.511 58.3839 114.511C15.9345 114.639 20.0137 175.779 53.2849 175.779C72.4062 175.779 79.6724 211.572 46.6561 211.699C26.8974 211.699 26.26 236.792 39.5175 241.887" stroke="#C8DBFB" stroke-linecap="round" stroke-linejoin="round" stroke-dasharray="3.99 3.99"/>
<path d="M41.9395 242.397C42.7044 242.524 43.5967 242.651 44.489 242.651" stroke="#C8DBFB" stroke-linecap="round" stroke-linejoin="round"/>
<path d="M43.5967 248.638C46.976 248.638 49.7155 245.901 49.7155 242.524C49.7155 239.147 46.976 236.41 43.5967 236.41C40.2173 236.41 37.4778 239.147 37.4778 242.524C37.4778 245.901 40.2173 248.638 43.5967 248.638Z" fill="#5193F4"/>
<path d="M571.474 155.781C574.853 155.781 577.593 153.044 577.593 149.667C577.593 146.29 574.853 143.553 571.474 143.553C568.095 143.553 565.355 146.29 565.355 149.667C565.355 153.044 568.095 155.781 571.474 155.781Z" fill="#5193F4"/>
<path d="M111.924 196.923C111.031 201.891 109.757 206.731 108.227 211.444C104.913 221.762 100.196 231.697 95.4794 241.505C93.0573 246.6 82.9867 258.446 77.6328 260.739C78.2701 247.364 78.2701 231.824 76.7404 218.323C75.2107 205.33 79.9273 195.522 74.8283 183.422C74.1909 181.893 73.5535 180.365 72.7887 178.836C70.2392 173.104 67.6896 167.372 66.9248 161.131C65.905 153.234 68.327 144.317 75.0832 140.241C79.9273 137.312 86.3011 137.439 91.5276 139.732C96.7541 142.024 100.961 146.228 104.148 150.941C113.071 164.315 114.601 181.256 111.924 196.923Z" fill="#5193F4"/>
<path d="M88.2132 153.616C98.1563 167.754 99.0487 184.059 99.941 201.382C100.833 218.577 96.6266 236.028 88.0858 251.058" stroke="#0B43A4" stroke-miterlimit="10" stroke-linecap="round" stroke-linejoin="round"/>
<path d="M87.7034 413.463C80.6922 407.221 73.681 400.98 68.4545 393.21C63.9929 386.459 61.0609 378.816 57.1092 371.683C54.5596 367.098 51.6277 362.64 50.098 357.544C48.5683 352.449 48.9507 346.463 52.52 342.641C56.2168 338.693 62.7181 338.056 67.8171 340.094C72.9162 342.132 76.7404 346.463 79.7999 351.048C83.7516 357.162 86.4286 364.168 87.4484 371.301C88.4682 377.797 88.2133 384.548 89.2331 391.044C90.1254 397.158 92.165 403.018 94.842 408.495C97.1366 413.59 103.128 422.506 104.658 427.729C100.451 429.894 90.7628 416.137 87.7034 413.463Z" fill="#00AD9F"/>
<path d="M63.228 349.392C69.8568 352.322 72.5338 360.219 73.936 367.352C75.4657 375.504 75.2108 384.293 78.9076 391.554C85.9187 405.438 95.097 421.232 101.853 425.945" stroke="#00AD9F" stroke-miterlimit="10" stroke-linecap="round" stroke-linejoin="round"/>
<path d="M53.2849 394.484C47.421 392.191 39.7724 391.299 35.9482 396.267C32.8887 400.47 34.4185 406.457 36.5855 411.17C38.3702 415.246 40.6648 419.322 44.489 421.487C47.166 423.016 50.2254 423.398 53.1574 423.78C61.4433 424.799 69.8567 425.308 78.2701 425.181C87.9583 425.181 99.8135 429.13 107.844 435.244C97.7739 416.01 72.7887 402.253 53.2849 394.484Z" fill="#0056EC"/>
<path d="M43.0868 406.966C50.4804 407.221 57.874 407.858 65.0126 409.896C72.2787 412.061 100.196 424.799 104.53 430.276" stroke="#0B43A4" stroke-miterlimit="10" stroke-linecap="round" stroke-linejoin="round"/>
<path d="M116.64 354.997C109.119 343.151 96.1167 334.872 82.2219 333.088C71.8963 331.687 61.3158 333.598 51.2452 331.433C40.5373 329.14 30.9766 322.389 25.3677 312.963C19.7587 303.665 18.3565 291.946 21.5434 281.501C23.9654 273.604 29.3194 266.089 37.2229 263.541C41.5571 262.14 46.2737 262.395 50.6079 263.414C54.6871 264.433 58.3839 266.089 61.8257 268.254C69.7292 273.222 76.103 280.992 80.9471 289.144C85.2813 296.659 96.1167 308.25 103.51 315.765C107.844 320.223 110.904 323.153 110.904 323.153C116.003 329.522 113.708 347.609 116.64 354.997Z" fill="#52D2BC"/>
<path d="M34.9283 286.469C59.6586 297.55 86.556 312.199 104.02 332.834" stroke="#00AD9F" stroke-miterlimit="10" stroke-linecap="round" stroke-linejoin="round"/>
<path opacity="0.2" d="M106.442 330.159C106.442 330.159 69.6017 300.353 61.9532 268.381C69.8567 273.349 76.2305 281.119 81.0746 289.271C85.4087 296.786 96.2442 308.377 103.638 315.893C104.403 319.841 105.422 324.554 106.442 330.159Z" fill="#5275A0"/>
<path opacity="0.2" d="M108.099 211.572C104.785 221.889 100.068 231.824 95.3519 241.632C92.9298 246.727 82.8593 258.573 77.5053 260.866C78.1427 247.492 78.1427 231.952 76.6129 218.45C75.0832 205.458 79.7998 195.65 74.7008 183.549C74.0634 182.02 73.426 180.492 72.6612 178.963C73.1711 179.091 73.5535 179.345 74.0634 179.473C82.4768 183.039 86.3011 191.956 87.066 200.49C87.7033 207.623 86.4286 214.756 85.4088 221.762C85.0263 225.073 84.6439 228.385 85.2813 231.57V231.697C86.1736 235.518 91.7826 235.264 92.4199 231.442L94.7145 219.596C95.3519 216.03 96.1167 212.336 99.0487 209.916C100.196 208.897 101.726 208.26 103.128 208.387C105.677 208.26 107.08 209.661 108.099 211.572Z" fill="#5275A0"/>
<path d="M106.442 322.644C100.578 292.328 97.5189 287.615 100.068 280.1C103.383 270.419 101.471 260.611 104.53 250.931C107.59 241.123 109.757 230.678 107.207 220.743C106.442 217.558 104.785 214.247 101.088 214.119C99.5586 214.119 98.1563 214.629 97.009 215.648C94.0771 218.068 93.3122 221.889 92.6749 225.328L90.5078 237.174C89.7429 240.996 84.2615 241.25 83.3691 237.429V237.302C82.6043 234.117 82.9867 230.805 83.4966 227.494C84.3889 220.361 85.7912 213.355 85.1538 206.222C84.3889 197.56 80.5647 188.771 72.1513 185.205C69.2193 183.931 65.7775 183.676 62.7181 184.441C53.9222 186.733 51.6277 195.268 53.0299 202.528C53.9222 207.623 56.3443 212.336 58.5114 217.176C63.8653 228.767 59.9136 239.34 60.6785 252.077C62.5906 287.106 106.442 322.644 106.442 322.644Z" fill="#7EE8D4"/>
<path d="M67.3072 193.612C71.6414 215.138 75.9755 236.919 84.3889 257.3C86.811 263.286 88.0857 271.056 102.236 287.36" stroke="#00AD9F" stroke-miterlimit="10" stroke-linecap="round" stroke-linejoin="round"/>
<path d="M235.958 199.089C231.496 193.994 227.289 188.771 222.955 183.804C220.151 180.492 217.219 177.435 214.032 174.378C212.502 172.849 210.845 171.448 209.188 170.047C199.117 161.768 187.772 154.762 175.789 149.667C168.523 146.61 160.874 143.935 154.628 139.095C148.509 134.127 144.048 125.975 146.087 118.333C147.617 112.855 152.206 108.525 157.56 106.614C162.914 104.703 168.905 104.831 174.387 105.977C189.939 109.289 202.941 120.498 211.737 133.745C211.865 134 212.12 134.255 212.247 134.509C218.748 144.445 223.21 155.399 227.162 166.608C228.437 170.175 229.584 173.868 230.859 177.435C232.771 182.657 238.252 193.739 235.958 199.089Z" fill="#5193F4"/>
<path d="M164.826 118.842C181.78 122.026 193.763 133.363 206.383 145.081C219.003 156.927 228.054 172.34 232.388 189.026" stroke="#0B43A4" stroke-miterlimit="10" stroke-linecap="round" stroke-linejoin="round"/>
<path opacity="0.2" d="M222.955 183.804C222.828 185.587 222.828 187.37 223.21 189.154C219.003 188.134 216.071 181.638 214.032 174.378C212.12 167.372 211.227 159.857 210.845 156.418C210.335 149.03 210.717 141.642 212.247 134.382C218.748 144.317 223.21 155.271 227.162 166.481C225.76 170.429 224.612 174.505 223.72 178.709C223.465 180.365 223.083 182.02 222.955 183.804Z" fill="#5275A0"/>
<path d="M252.402 122.536C251 128.905 247.176 134.382 243.734 139.986C241.949 142.916 240.292 145.973 238.762 149.03C233.791 158.838 229.966 169.155 227.417 179.855C226.652 183.422 226.142 186.733 226.779 190.3C218.366 188.389 215.052 164.697 214.542 157.564C213.522 144.827 215.689 131.834 220.916 120.116C223.21 115.021 226.142 109.926 230.731 106.741C235.32 103.429 241.694 102.283 246.538 105.213C249.47 106.869 251.255 109.798 252.147 112.983C253.039 116.167 253.167 119.479 252.402 122.536Z" fill="#52D2BC"/>
<path d="M223.592 183.294C218.366 170.302 221.553 142.661 229.839 125.211C232.388 119.988 235.958 115.021 240.929 112.091" stroke="#00AD9F" stroke-miterlimit="10" stroke-linecap="round" stroke-linejoin="round"/>
<path opacity="0.2" d="M252.402 122.536C251 128.904 247.176 134.382 243.734 139.986C241.949 142.916 240.292 145.973 238.762 149.03C236.468 145.209 234.938 140.878 234.428 136.547C233.663 129.159 236.595 121.262 242.586 116.804C245.391 114.766 248.705 113.619 252.147 113.11C253.039 116.167 253.167 119.479 252.402 122.536Z" fill="#5275A0"/>
<path d="M300.715 177.817C300.333 180.237 299.568 182.53 298.548 184.823C294.851 192.847 287.075 199.726 275.348 205.33C275.348 205.33 274.71 192.593 274.583 189.281C274.073 174.76 258.266 166.735 248.195 156.036C243.096 150.686 239.272 143.808 238.507 136.42C237.742 129.032 240.674 121.135 246.666 116.677C251.765 112.983 258.266 112.218 264.512 112.728C274.583 113.492 284.653 117.696 290.9 125.593C291.155 125.848 291.41 126.23 291.665 126.484C295.489 131.707 297.401 138.076 298.931 144.317C301.353 155.399 302.5 166.735 300.715 177.817Z" fill="#00AD9F"/>
<path d="M251 124.574C261.963 130.178 272.926 137.057 279.299 147.629C288.223 162.277 286.183 181.383 279.427 197.178" stroke="#00AD9F" stroke-miterlimit="10" stroke-linecap="round" stroke-linejoin="round"/>
<path d="M483.643 271.693C490.654 260.229 487.085 245.454 489.507 232.334C491.419 222.144 497.028 212.846 505.059 206.349C510.158 202.273 517.297 199.471 523.033 202.528C524.308 203.165 525.71 204.057 526.985 203.42C527.75 203.038 528.005 202.146 528.132 201.254C529.534 194.121 526.22 186.351 528.897 179.6C530.427 176.034 533.486 173.232 536.8 171.194C543.174 167.118 550.568 164.825 558.216 164.443C560.256 164.315 562.296 164.443 564.08 165.334C567.267 166.99 568.797 170.939 568.414 174.633C568.032 178.199 565.992 181.384 563.825 184.313C556.559 193.867 545.724 202.146 544.322 214.119C544.194 215.648 544.194 217.176 544.831 218.577C545.469 219.851 546.744 220.87 547.508 222.144C549.803 226.22 545.469 230.933 541.135 232.971C537.31 234.882 532.976 236.028 528.769 236.41C525.838 236.665 522.523 236.792 520.484 238.958C516.787 243.034 520.993 249.402 520.229 254.88C519.719 258.319 517.297 260.994 514.875 263.286C510.285 267.617 505.314 271.566 499.96 275.005C495.626 277.807 491.037 280.227 487.212 283.667C483.388 287.106 480.329 291.691 480.074 296.786" fill="#52D2BC"/>
<path d="M492.821 260.484C493.969 254.88 496.518 249.785 499.068 244.69C503.019 236.792 507.099 228.768 513.217 222.271C517.807 217.304 523.415 213.482 528.132 208.642C531.446 205.203 534.251 201.254 536.545 197.051C537.693 194.758 538.84 192.338 540.37 190.3C542.282 187.88 544.959 186.224 547.253 184.059C550.313 181.256 552.862 177.817 554.52 173.996" stroke="#00AD9F" stroke-miterlimit="10" stroke-linecap="round" stroke-linejoin="round"/>
<path d="M583.712 279.59C582.182 285.577 579.76 291.564 575.808 296.404C573.004 299.716 569.562 302.263 565.865 304.429C563.953 305.575 561.913 306.467 559.874 307.358C551.843 310.67 543.302 312.581 534.633 312.963C522.013 313.472 509.138 310.67 497.028 314.237C491.419 315.893 486.32 318.822 482.241 322.898C479.564 325.318 477.397 328.248 475.612 331.305L477.269 320.86C480.329 309.651 483.388 298.187 489.634 288.379C493.714 282.011 498.813 276.406 504.422 271.311C513.217 263.159 523.161 255.898 533.996 250.676C542.792 246.473 552.48 243.416 562.168 244.562C571.856 245.708 581.417 251.822 584.349 261.121C586.134 267.108 585.241 273.604 583.712 279.59Z" fill="#5193F4"/>
<path d="M485.3 312.963C494.606 299.334 508.373 288.762 524.053 283.539C533.869 280.227 544.194 279.081 554.01 276.151C563.953 273.349 573.768 268.509 579.632 259.975" stroke="#0B43A4" stroke-miterlimit="10" stroke-linecap="round" stroke-linejoin="round"/>
<path d="M491.419 413.208C491.929 399.197 499.195 386.204 508.118 375.25C515.512 366.079 524.308 357.799 535.271 353.596C538.713 352.322 542.537 351.431 546.106 352.322C549.675 353.214 552.862 356.271 552.99 359.965C552.99 363.022 550.95 365.824 548.783 367.989C541.517 375.25 532.211 379.835 523.543 385.058C508.501 394.101 494.224 406.202 488.232 422.761" fill="#52D2BC"/>
<path d="M496.901 400.98C506.079 380.472 529.789 362.258 545.469 359.965" stroke="#00AD9F" stroke-miterlimit="10" stroke-linecap="round" stroke-linejoin="round"/>
<path d="M485.683 424.417C485.555 422.124 493.204 415.883 494.988 414.354C504.549 405.693 516.022 399.324 528.005 395.503C532.849 393.974 538.075 392.828 542.919 394.101C547.763 395.248 552.225 399.324 552.735 404.546C553.245 409.641 549.803 414.609 545.469 417.156C541.135 419.577 536.036 419.959 531.064 419.704C523.543 419.322 516.149 417.411 508.628 417.411C501.107 417.284 490.527 418.048 485.683 424.417Z" fill="#00AD9F"/>
<path d="M493.459 417.284C508.883 408.877 532.211 403.527 549.166 405.565" stroke="#00AD9F" stroke-miterlimit="10" stroke-linecap="round" stroke-linejoin="round"/>
<path opacity="0.2" d="M300.715 177.817C300.333 180.237 299.568 182.53 298.548 184.823C293.194 173.359 288.35 158.328 287.203 139.986C286.948 135.019 288.223 129.924 290.9 125.593C291.155 125.848 291.41 126.23 291.665 126.484C295.489 131.707 297.401 138.076 298.931 144.317C301.353 155.399 302.5 166.735 300.715 177.817Z" fill="#5275A0"/>
<path d="M354.128 177.18C365.6 173.104 377.583 169.792 388.164 163.551C391.351 161.64 394.41 159.475 396.577 156.545C398.872 153.616 400.146 149.922 399.764 146.228C399.254 142.534 396.832 138.967 397.724 135.273C398.234 132.853 400.019 130.943 401.421 128.905C404.736 124.064 405.755 117.696 403.971 111.964C402.186 105.85 397.597 101.009 395.047 95.2774C392.88 90.5645 392.115 85.2147 392.88 80.1196C383.192 80.247 374.396 85.4694 364.836 87.2527C357.57 88.6538 350.048 87.8896 342.782 89.5455C329.652 92.6025 318.944 104.066 316.905 117.441C310.786 116.422 304.285 118.587 299.95 123.045C295.489 127.886 292.939 134.637 293.322 141.26C296.254 188.899 323.661 213.864 323.661 213.864C323.661 213.864 349.666 178.836 354.128 177.18Z" fill="#7EE8D4"/>
<path d="M328.25 176.925C327.103 165.207 331.182 153.488 335.899 142.661C340.488 132.089 345.842 121.772 352.853 112.728C359.992 103.684 369.042 95.9142 379.623 91.4561" stroke="#00AD9F" stroke-miterlimit="10" stroke-linecap="round" stroke-linejoin="round"/>
<path d="M338.576 98.7166C337.428 109.161 338.193 121.772 340.998 132.089" stroke="#00AD9F" stroke-miterlimit="10" stroke-linecap="round" stroke-linejoin="round"/>
<path d="M342.91 128.268C354.893 120.625 373.376 115.912 387.526 116.677" stroke="#00AD9F" stroke-miterlimit="10" stroke-linecap="round" stroke-linejoin="round"/>
<path d="M313.59 130.178C327.995 136.292 328.633 157.437 329.015 163.423" stroke="#00AD9F" stroke-miterlimit="10" stroke-linecap="round" stroke-linejoin="round"/>
<path d="M332.967 150.049C344.057 142.152 359.992 139.731 371.719 142.661" stroke="#00AD9F" stroke-miterlimit="10" stroke-linecap="round" stroke-linejoin="round"/>
<path d="M363.051 93.2393C359.737 97.3153 358.844 102.156 359.227 105.595" stroke="#00AD9F" stroke-miterlimit="10" stroke-linecap="round" stroke-linejoin="round"/>
<path d="M362.414 102.538C367.513 99.9902 374.269 99.3533 381.535 101.137" stroke="#00AD9F" stroke-miterlimit="10" stroke-linecap="round" stroke-linejoin="round"/>
<path d="M78.5251 125.593C79.9273 125.465 89.1056 118.715 92.6749 116.422C93.6947 115.785 94.7145 115.148 95.3519 114.129C95.9893 113.11 96.3717 111.836 95.8618 110.817C95.2244 109.416 94.2046 108.142 91.5276 108.142C86.9385 108.142 85.2813 109.671 83.1142 111.964C75.7206 119.606 78.5251 125.593 78.5251 125.593Z" fill="#4A49CA"/>
<path d="M119.955 153.234C124.034 155.017 128.241 156.8 132.702 156.291C134.359 156.036 136.272 155.272 136.782 153.743C137.291 152.342 136.654 150.813 135.507 149.794C134.359 148.775 132.957 148.393 131.555 148.011C126.201 146.737 118.68 147.374 113.326 148.903C113.326 148.903 117.533 152.215 119.955 153.234Z" fill="#4A49CA"/>
<path d="M146.47 93.7488C144.685 92.6024 142.645 91.0739 142.645 89.0359C142.645 86.8705 144.812 85.342 146.98 85.2146C149.147 85.0872 151.059 86.361 152.716 87.7621C159.472 93.7488 158.707 100.5 158.707 100.5C158.707 100.5 148.509 95.0226 146.47 93.7488Z" fill="#4A49CA"/>
<path d="M151.824 75.6615C150.294 75.0246 148.637 74.133 147.744 72.7319C147.235 71.9676 146.98 71.076 147.362 70.3117C147.872 69.038 148.637 67.7642 151.951 68.4011C162.404 70.3117 164.699 77.4448 164.699 77.4448C164.699 77.4448 154.628 76.9353 151.824 75.6615Z" fill="#4A49CA"/>
<path d="M182.673 91.5835C186.879 91.2014 191.214 89.1634 193.891 85.8516C194.91 84.5779 195.803 83.1767 196.185 81.6482C196.568 80.1197 196.185 78.3364 194.91 77.1901C193.381 75.9163 191.086 76.1711 189.429 77.1901C187.772 78.2091 186.752 79.9923 185.86 81.7756C184.84 84.1957 182.673 91.5835 182.673 91.5835Z" fill="#4A49CA"/>
<path d="M107.335 245.326C97.1365 236.283 86.9385 227.366 76.7404 218.322C71.259 213.482 65.7775 208.642 62.3357 202.273C54.8146 188.517 59.1488 170.684 69.0919 158.711C79.1625 146.737 93.8222 139.732 108.482 134.509C123.269 129.414 138.566 125.72 152.588 118.969C161.384 114.766 170.308 108.397 172.602 98.8439C174.004 93.1119 172.857 86.8705 169.415 82.0302C165.973 77.3173 160.237 74.2603 154.373 73.8782" stroke="#0B43A4" stroke-miterlimit="10" stroke-linecap="round" stroke-linejoin="round"/>
<path d="M189.811 81.7756C187.007 90.3098 176.172 95.5323 171.2 102.92" stroke="#0B43A4" stroke-miterlimit="10" stroke-linecap="round" stroke-linejoin="round"/>
<path d="M150.804 91.7109C152.971 94.0037 155.52 95.787 157.433 98.3345C161.384 103.557 161.767 112.091 155.903 117.441" stroke="#0B43A4" stroke-miterlimit="10" stroke-linecap="round" stroke-linejoin="round"/>
<path d="M95.7343 139.604C104.785 146.483 116.64 151.195 127.986 151.578" stroke="#0B43A4" stroke-miterlimit="10" stroke-linecap="round" stroke-linejoin="round"/>
<path d="M75.0833 152.214C70.8766 139.986 75.4657 125.338 85.7912 117.568" stroke="#0B43A4" stroke-miterlimit="10" stroke-linecap="round" stroke-linejoin="round"/>
<path d="M404.608 100.627C404.098 99.0989 404.098 97.3156 405.245 96.1692C406.138 95.2776 407.667 94.8955 408.815 95.405C417.738 99.3536 416.846 113.365 416.846 113.365C416.846 113.365 408.177 111.964 404.608 100.627Z" fill="#4A49CA"/>
<path d="M404.353 126.739C398.617 137.184 419.14 136.42 426.534 130.306C426.534 130.306 409.325 117.696 404.353 126.739Z" fill="#4A49CA"/>
<path d="M430.358 101.392C428.956 99.4809 428.446 96.6786 429.976 94.768C431.123 93.3668 433.035 92.9847 434.82 93.3668C436.605 93.749 439.154 95.2775 440.301 96.6786C447.058 105.085 443.871 113.365 443.871 113.365C443.871 113.365 432.653 104.576 430.358 101.392Z" fill="#4A49CA"/>
<path d="M512.198 127.249C511.688 125.593 511.815 123.682 513.09 122.536C513.855 121.772 515.002 121.517 516.149 121.644C517.169 121.772 518.189 122.154 519.209 122.536C521.248 123.555 522.906 125.211 523.925 127.249C526.475 132.471 524.69 138.967 524.69 138.967C524.69 138.967 513.472 131.325 512.198 127.249Z" fill="#4A49CA"/>
<path d="M486.448 146.483C482.751 143.298 477.269 142.279 472.808 144.317C471.66 144.827 470.641 145.464 469.876 146.483C468.218 148.775 468.856 151.96 470.513 154.252C472.17 156.418 474.72 157.819 477.269 158.965C481.858 161.003 488.997 161.513 493.841 162.659C493.841 162.659 493.841 152.979 486.448 146.483Z" fill="#4A49CA"/>
<path d="M410.982 102.793C414.041 112.728 422.582 120.243 432.143 124.192C441.704 128.268 452.157 129.287 462.61 129.924C472.935 130.561 483.388 130.943 493.459 133.618C503.274 136.293 512.962 141.77 517.169 150.941C522.268 162.15 517.806 175.524 510.54 185.46C503.402 195.522 493.714 203.547 486.83 213.737C483.643 218.45 480.966 223.927 481.603 229.532C482.496 237.047 488.742 242.524 494.606 247.237" stroke="#0B43A4" stroke-miterlimit="10" stroke-linecap="round" stroke-linejoin="round"/>
<path d="M434.82 99.2261C441.704 106.869 447.185 118.715 448.46 128.777" stroke="#0B43A4" stroke-miterlimit="10" stroke-linecap="round" stroke-linejoin="round"/>
<path d="M411.747 128.523C415.698 129.542 419.65 130.561 423.729 130.561C427.809 130.561 432.525 128.268 435.457 125.466" stroke="#0B43A4" stroke-miterlimit="10" stroke-linecap="round" stroke-linejoin="round"/>
<path d="M518.954 127.886C522.651 131.452 524.818 136.42 525.073 141.515C525.2 146.61 522.396 152.851 519.081 156.673" stroke="#0B43A4" stroke-miterlimit="10" stroke-linecap="round" stroke-linejoin="round"/>
<path d="M480.456 151.068C487.85 157.819 494.224 163.296 502.382 169.028C506.079 171.703 513.472 175.015 516.787 174.123" stroke="#0B43A4" stroke-miterlimit="10" stroke-linecap="round" stroke-linejoin="round"/>
<path opacity="0.2" d="M565.866 304.429C563.954 305.575 561.914 306.467 559.875 307.358C551.844 310.67 543.303 312.581 534.634 312.963C522.014 313.472 509.139 310.67 497.029 314.237C491.42 315.893 486.321 318.822 482.242 322.898C481.859 323.153 481.35 323.28 480.967 323.535C479.947 315.001 501.236 303.919 507.737 300.99C519.337 295.767 532.467 293.474 545.215 294.493C550.824 295.003 556.56 296.022 561.149 299.206C562.806 300.607 564.591 302.391 565.866 304.429Z" fill="#5275A0"/>
<path d="M544.959 299.588C550.568 299.971 556.304 301.117 560.893 304.301C565.482 307.486 568.797 313.09 567.65 318.695C566.375 325.064 559.746 329.267 553.372 330.031C546.871 330.796 540.37 329.012 533.996 327.738C519.846 324.809 505.314 324.172 490.909 325.828C487.34 326.21 483.898 326.974 480.839 328.757C479.819 320.223 501.107 309.142 507.609 306.212C519.209 300.862 532.211 298.569 544.959 299.588Z" fill="#52D2BC"/>
<path d="M486.32 323.28C496.901 313.982 523.925 307.74 543.174 309.778C548.911 310.415 554.774 312.071 559.236 315.892" stroke="#00AD9F" stroke-miterlimit="10" stroke-linecap="round" stroke-linejoin="round"/>
<path d="M466.689 219.087L569.817 218.832C581.927 218.832 591.742 228.64 591.742 240.741C591.742 252.841 581.927 262.649 569.817 262.649L499.323 262.777" stroke="#0B43A4" stroke-miterlimit="10" stroke-linecap="round" stroke-linejoin="round" stroke-dasharray="4 4"/>
<path d="M154.628 294.748L82.4768 294.875C75.5931 294.875 70.1117 300.48 70.1117 307.231C70.1117 314.109 75.7206 319.586 82.4768 319.586H103.51" stroke="#0B43A4" stroke-miterlimit="10" stroke-linecap="round" stroke-linejoin="round" stroke-dasharray="4 4"/>
<path d="M39.5175 350.539C14.7872 350.539 14.2773 387.351 45.7638 387.351C77.2503 387.223 489.507 386.459 509.011 386.459C528.514 386.459 530.554 356.144 506.461 356.144C458.658 356.271 457.001 333.471 483.643 333.343" stroke="#C8DBFB" stroke-miterlimit="10" stroke-linecap="round" stroke-linejoin="round" stroke-dasharray="4 4"/>
<path d="M39.2625 356.653C42.6419 356.653 45.3813 353.916 45.3813 350.539C45.3813 347.162 42.6419 344.425 39.2625 344.425C35.8832 344.425 33.1437 347.162 33.1437 350.539C33.1437 353.916 35.8832 356.653 39.2625 356.653Z" fill="#5193F4"/>
<path d="M489.379 340.604C492.759 340.604 495.498 337.866 495.498 334.49C495.498 331.113 492.759 328.375 489.379 328.375C486 328.375 483.261 331.113 483.261 334.49C483.261 337.866 486 340.604 489.379 340.604Z" fill="#0B43A4"/>
<path opacity="0.2" d="M502.127 439.957L118.552 440.721C113.453 440.721 109.247 436.645 109.247 431.422L108.737 177.562C108.737 172.467 112.816 168.264 118.043 168.264L501.617 167.5C506.716 167.5 510.923 171.576 510.923 176.798L511.433 430.658C511.305 435.753 507.226 439.957 502.127 439.957Z" fill="#5275A0"/>
<path d="M494.606 435.116L111.031 435.881C105.932 435.881 101.726 431.805 101.726 426.582L101.216 172.722C101.216 167.627 105.295 163.423 110.521 163.423L494.096 162.659C499.195 162.659 503.402 166.735 503.402 171.958L503.912 425.818C503.784 430.913 499.705 435.116 494.606 435.116Z" fill="white"/>
<path d="M493.332 162.659L111.415 163.423C105.806 163.423 101.344 168.009 101.344 173.486V182.275L503.403 181.383V172.595C503.53 167.117 498.941 162.659 493.332 162.659Z" fill="#0056EC"/>
<path d="M111.924 435.881L169.67 435.753L169.16 182.148L101.343 182.275L101.853 425.818C101.853 431.422 106.315 435.881 111.924 435.881Z" fill="#C8DBFB"/>
<path d="M494.096 165.207C497.793 165.207 500.852 168.264 500.852 171.958L501.362 425.818C501.362 427.601 500.725 429.257 499.45 430.531C498.175 431.805 496.518 432.441 494.733 432.569L111.159 433.333C107.462 433.333 104.403 430.276 104.403 426.582L103.893 172.722C103.893 170.939 104.53 169.283 105.805 168.009C107.08 166.735 108.737 166.098 110.521 165.971L494.096 165.207ZM494.096 162.659L110.521 163.423C105.422 163.423 101.216 167.627 101.216 172.722L101.726 426.582C101.726 431.677 105.932 435.881 111.031 435.881L494.606 435.116C499.705 435.116 503.912 430.913 503.912 425.818L503.402 171.958C503.402 166.863 499.195 162.659 494.096 162.659Z" fill="#0056EC"/>
<path d="M159.855 416.52L115.366 416.647C113.453 416.647 111.796 415.118 111.796 413.08V412.698C111.796 410.788 113.326 409.132 115.366 409.132L159.855 409.004C161.767 409.004 163.424 410.533 163.424 412.571V412.953C163.424 414.864 161.894 416.52 159.855 416.52Z" fill="white"/>
<path d="M154.501 244.435L116.64 244.562C113.071 244.562 110.139 241.632 110.139 238.066L110.012 200.235C110.012 196.669 112.944 193.739 116.513 193.739L154.373 193.612C157.942 193.612 160.874 196.541 160.874 200.108L161.002 237.938C161.002 241.505 158.197 244.435 154.501 244.435Z" fill="white"/>
<path d="M316.65 357.799L184.712 358.054C182.163 358.054 180.123 356.016 180.123 353.468V352.831C180.123 350.284 182.163 348.246 184.712 348.246L316.65 347.991C319.199 347.991 321.239 350.029 321.239 352.577V353.214C321.239 355.761 319.199 357.799 316.65 357.799Z" fill="#C8DBFB"/>
<path d="M309.001 207.623L204.726 207.878C202.177 207.878 200.137 205.84 200.137 203.292V202.655C200.137 200.108 202.177 198.07 204.726 198.07L309.001 197.815C311.551 197.815 313.59 199.853 313.59 202.4V203.037C313.59 205.585 311.551 207.623 309.001 207.623Z" fill="#C8DBFB"/>
<path d="M473.827 312.963L334.879 313.217C332.329 313.217 330.29 311.179 330.29 308.632V307.995C330.29 305.448 332.329 303.41 334.879 303.41L473.827 303.155C476.377 303.155 478.417 305.193 478.417 307.74V308.377C478.417 310.925 476.377 312.963 473.827 312.963Z" fill="#C8DBFB"/>
<path d="M316.65 378.179L184.712 378.434C182.163 378.434 180.123 376.396 180.123 373.848V373.212C180.123 370.664 182.163 368.626 184.712 368.626L316.65 368.371C319.199 368.371 321.239 370.409 321.239 372.957V373.594C321.366 376.014 319.199 378.179 316.65 378.179Z" fill="#C8DBFB"/>
<path d="M316.777 398.559L184.84 398.814C182.29 398.814 180.251 396.776 180.251 394.229V393.592C180.251 391.044 182.29 389.006 184.84 389.006L316.777 388.751C319.327 388.751 321.366 390.789 321.366 393.337V393.974C321.366 396.394 319.327 398.559 316.777 398.559Z" fill="#C8DBFB"/>
<path d="M471.023 411.807L338.066 412.061C333.859 412.061 330.417 408.622 330.417 404.419L330.29 347.354C330.29 343.151 333.732 339.712 337.938 339.712L470.895 339.457C475.102 339.457 478.544 342.896 478.544 347.1L478.672 404.164C478.672 408.367 475.23 411.807 471.023 411.807Z" fill="#C8DBFB"/>
<path d="M120.21 175.906C121.97 175.906 123.397 174.481 123.397 172.722C123.397 170.963 121.97 169.538 120.21 169.538C118.45 169.538 117.023 170.963 117.023 172.722C117.023 174.481 118.45 175.906 120.21 175.906Z" fill="#C8DBFB"/>
<path d="M133.977 175.906C135.737 175.906 137.164 174.481 137.164 172.722C137.164 170.963 135.737 169.538 133.977 169.538C132.217 169.538 130.79 170.963 130.79 172.722C130.79 174.481 132.217 175.906 133.977 175.906Z" fill="#C8DBFB"/>
<path d="M147.744 175.779C149.505 175.779 150.931 174.353 150.931 172.595C150.931 170.836 149.505 169.41 147.744 169.41C145.984 169.41 144.558 170.836 144.558 172.595C144.558 174.353 145.984 175.779 147.744 175.779Z" fill="#C8DBFB"/>
<path d="M185.732 212.336C190.942 212.336 195.165 208.116 195.165 202.91C195.165 197.704 190.942 193.484 185.732 193.484C180.522 193.484 176.299 197.704 176.299 202.91C176.299 208.116 180.522 212.336 185.732 212.336Z" fill="#C8DBFB"/>
<path d="M157.178 252.459L115.621 252.587C114.601 252.587 113.836 251.822 113.836 250.803V250.549C113.836 249.53 114.601 248.765 115.621 248.765L157.178 248.638C158.197 248.638 158.962 249.402 158.962 250.421V250.676C158.962 251.568 158.197 252.459 157.178 252.459Z" fill="white"/>
<path d="M157.178 260.356L115.621 260.484C114.601 260.484 113.836 259.72 113.836 258.701V258.446C113.836 257.427 114.601 256.663 115.621 256.663L157.178 256.535C158.197 256.535 158.962 257.299 158.962 258.318V258.573C158.962 259.592 158.197 260.356 157.178 260.356Z" fill="white"/>
<path d="M204.854 277.17L193.126 277.297L193.253 326.592H183.055C179.486 326.592 176.554 323.662 176.554 320.096L176.426 229.022C176.426 225.455 179.358 222.526 182.928 222.398H204.726L204.854 277.17Z" fill="#C8DBFB"/>
<path d="M281.212 222.144V223.418C284.781 223.418 287.585 226.22 287.585 229.786L287.713 318.567C287.713 320.223 287.075 321.879 285.801 323.026C284.653 324.172 282.996 324.936 281.339 324.936L184.075 325.191C180.506 325.191 177.701 322.389 177.701 318.822L177.574 230.041C177.574 228.385 178.211 226.729 179.486 225.583C180.633 224.437 182.29 223.672 183.948 223.672L281.212 223.418V222.144ZM281.212 222.144L183.948 222.399C179.741 222.399 176.299 225.838 176.299 230.041L176.426 318.822C176.426 323.026 179.868 326.465 184.075 326.465L281.339 326.21C285.546 326.21 288.988 322.771 288.988 318.567L288.86 229.786C288.86 225.583 285.418 222.144 281.212 222.144Z" fill="#C8DBFB"/>
<path d="M443.488 295.258L313.845 265.961C309.766 265.07 307.089 260.866 308.109 256.79L322.641 192.338C323.533 188.262 327.74 185.587 331.819 186.606L461.462 215.902C465.541 216.794 468.218 220.997 467.199 225.073L452.666 289.526C451.774 293.602 447.695 296.277 443.488 295.258Z" fill="#C8DBFB"/>
<path d="M192.616 470.654L174.387 470.782L170.053 447.599H196.95L192.616 470.654Z" fill="#0056EC"/>
<path d="M175.024 447.599C175.024 449.51 174.642 452.694 175.917 452.694C177.191 452.694 176.681 449.637 178.084 449.765C178.976 449.765 177.701 459.828 181.143 460.082C183.565 460.21 183.055 455.242 183.31 452.058C183.438 449.892 186.242 450.274 186.242 451.803C186.242 453.331 186.115 454.478 186.242 456.261C186.37 459.318 190.959 458.426 190.831 454.478C190.704 450.402 190.831 447.727 190.831 447.727L175.024 447.599Z" fill="#C8DBFB"/>
<path d="M170.69 461.61C170.308 461.61 169.925 461.61 169.67 461.482C168.396 461.228 167.376 460.463 166.866 459.444C164.954 455.496 169.925 448.235 170.053 447.853L170.308 449.127C170.308 449.254 165.973 455.496 167.631 459.062C168.013 459.954 168.778 460.463 169.798 460.591C170.053 460.718 170.435 460.718 170.69 460.718C177.191 460.718 188.409 448.49 188.537 448.363C189.047 447.853 189.811 448.363 189.556 448.745C189.047 449.382 177.701 461.61 170.69 461.61Z" fill="#0C2340"/>
<path opacity="0.2" d="M361.394 145.718C335.644 144.699 300.078 163.806 312.698 210.425C312.443 214.374 314.738 217.176 317.287 216.412C319.837 215.648 317.542 208.132 317.542 208.132C321.876 173.486 329.907 167.5 343.547 167.627L375.544 167.5C383.447 168.646 397.852 174.25 400.019 201.891L407.922 203.42C408.432 183.422 403.588 147.374 361.394 145.718Z" fill="#5275A0"/>
<path d="M361.394 141.642C335.644 140.623 300.078 159.73 312.698 206.349L317.542 204.057C321.876 169.41 329.907 163.424 343.547 163.551L375.544 163.424C383.447 164.57 398.234 171.576 400.401 199.344H407.922C408.432 179.346 403.588 143.298 361.394 141.642Z" fill="#EF832B"/>
<path d="M356.04 142.406L352.216 150.813C352.216 150.813 352.725 155.526 357.315 155.399C361.904 155.271 362.541 153.106 362.541 153.106L363.178 143.425L356.04 142.406Z" fill="#FFB9A3"/>
<path d="M375.799 135.401C371.464 143.171 369.552 145.464 363.816 146.61C356.422 148.138 348.136 143.171 351.961 130.815C355.148 120.753 359.864 122.281 364.581 122.663C369.17 123.173 380.515 127.121 375.799 135.401Z" fill="#FFB9A3"/>
<path d="M358.334 129.287C357.187 128.65 355.657 129.159 354.765 130.178C353.873 131.197 353.363 132.599 353.745 133.872C351.961 133.872 350.431 135.656 350.558 137.439C349.284 134.637 350.048 131.58 349.793 128.777C349.539 125.848 349.921 122.663 351.706 120.498C352.47 119.606 353.49 118.842 354.51 118.332C358.589 116.167 363.561 116.167 367.64 118.205C368.532 118.587 370.572 119.988 373.504 119.224C379.113 117.823 382.427 121.644 378.985 125.211C380.133 125.593 381.28 126.102 381.79 127.121C381.917 127.376 381.917 127.758 381.79 128.013C381.662 128.14 381.408 128.268 381.28 128.395C380.388 128.777 379.24 128.777 378.348 128.65C378.73 129.032 380.77 129.159 381.408 130.306C383.065 133.49 376.436 131.962 375.416 131.58C376.563 131.834 379.623 134.254 378.603 135.91C378.348 136.292 374.269 138.585 369.935 133.618C368.915 132.471 367.64 131.325 366.238 130.943C365.091 130.688 363.816 131.07 362.669 131.452C361.904 131.707 359.737 132.981 359.099 132.216C358.844 131.325 359.737 129.924 358.334 129.287Z" fill="#0C2340"/>
<path d="M401.166 199.344C400.019 203.292 398.872 203.674 400.274 204.311C401.676 204.948 402.823 202.783 402.823 202.783L409.197 204.057C409.197 204.057 407.795 199.853 406.775 199.344C405.628 198.834 401.166 199.344 401.166 199.344Z" fill="#FFB9A3"/>
<path d="M317.542 204.056C318.434 206.094 318.562 206.094 319.709 208.642C321.876 213.355 316.777 220.997 313.463 212.718C312.571 210.425 312.571 206.349 312.571 206.349L317.542 204.056Z" fill="#FFB9A3"/>
<path d="M367.513 118.715C371.847 118.969 377.328 115.912 380.643 119.861C380.898 120.243 381.535 119.734 381.28 119.351C377.966 114.639 371.974 118.205 367.385 118.078C367.003 117.95 367.003 118.715 367.513 118.715Z" fill="#0C2340"/>
<path d="M369.297 116.294C366.365 116.804 363.433 115.403 360.374 115.912C357.952 116.294 355.785 117.568 353.873 119.097C353.363 119.479 354 120.37 354.51 119.988C357.06 118.332 359.609 116.804 362.796 117.059C365.091 117.186 367.13 117.95 369.425 117.186C370.062 117.059 369.807 116.167 369.297 116.294Z" fill="#0C2340"/>
<path d="M352.216 120.371C350.048 121.644 348.901 123.428 348.646 125.975C348.519 127.758 348.391 131.962 350.176 132.981C350.558 133.236 351.068 132.599 350.686 132.344C349.539 131.198 349.411 128.013 349.539 126.485C349.666 124.192 350.686 122.409 352.471 121.007C352.853 120.625 352.598 120.116 352.216 120.371Z" fill="#0C2340"/>
<path d="M384.594 127.503C383.575 125.593 380.77 123.937 378.603 125.211C378.221 125.338 378.476 125.848 378.731 125.975C379.623 125.975 380.515 125.848 381.408 126.102C382.427 126.357 383.32 126.994 383.957 127.886C384.212 128.268 384.849 127.886 384.594 127.503Z" fill="#0C2340"/>
<path d="M242.714 321.879C256.226 326.847 267.954 342.387 265.277 353.596C262.218 366.333 253.422 371.811 253.422 371.811L250.617 366.716C250.617 366.716 257.629 355.761 256.991 350.539C255.971 342.259 245.518 336.655 245.518 336.655L242.714 321.879Z" fill="#0B43A4"/>
<path d="M209.443 465.432C209.443 465.432 201.157 468.744 199.117 470.654H215.562V465.432H209.443Z" fill="#0C2340"/>
<path d="M245.773 465.177C245.773 465.177 248.068 467.852 248.578 470.654H237.36C237.615 468.744 238.38 466.961 239.4 465.177H245.773Z" fill="#0C2340"/>
<path d="M246.538 465.432H238.89C239.017 456.388 237.232 425.691 235.32 402.636C234.301 389.134 233.281 378.307 232.643 376.141L236.723 375.25L252.275 371.811C254.824 383.911 248.705 439.447 246.538 465.432Z" fill="#047F76"/>
<path d="M218.366 375.632C212.375 385.058 210.845 452.949 208.295 465.559L215.562 465.941C215.562 465.941 223.847 423.143 241.694 374.868L218.366 375.632Z" fill="#009790"/>
<path opacity="0.2" d="M244.754 374.995C241.184 384.548 238.125 393.847 235.32 402.635C234.301 389.134 233.281 378.307 232.643 376.141L236.723 375.25L244.754 374.995Z" fill="#5275A0"/>
<path d="M218.366 375.632C212.375 385.058 210.845 452.949 208.295 465.559L215.562 465.941C215.562 465.941 223.847 423.143 241.694 374.868L218.366 375.632Z" fill="#009790"/>
<path d="M222.828 299.843C222.828 299.843 218.239 317.549 229.839 317.549L229.201 322.134L237.997 323.153L236.085 316.784C236.085 316.784 237.87 305.703 237.997 303.665C238.125 299.716 227.672 293.092 222.828 299.843Z" fill="#FFB9A3"/>
<path d="M194.132 279.97L190.69 279.977L190.718 294.37L194.16 294.363L194.132 279.97Z" fill="#0C2340"/>
<path d="M202.304 279.973H182.673C181.271 279.973 180.123 278.826 180.123 277.552V277.043C180.123 275.642 181.271 274.495 182.673 274.495H202.304C203.706 274.495 204.854 275.642 204.854 276.915V277.425C204.726 278.826 203.706 279.973 202.304 279.973Z" fill="#0056EC"/>
<path d="M189.811 298.187C189.684 294.876 187.007 295.767 188.537 290.417C189.429 287.106 196.313 290.927 195.42 293.22C194.528 295.512 193.636 299.079 193.636 299.079L189.811 298.187Z" fill="#FFB9A3"/>
<path d="M229.966 320.988C212.63 322.134 211.482 327.993 203.706 327.102C192.233 325.7 194.273 304.429 195.675 296.786H188.792C188.792 296.786 176.426 345.444 215.562 336.4C214.032 344.934 223.847 358.818 214.414 375.759C229.329 379.835 243.096 380.727 254.952 375.632C252.912 372.83 259.158 344.552 246.793 324.172C244.244 320.223 231.241 320.86 229.966 320.988Z" fill="#0056EC"/>
<path d="M229.966 320.988C212.63 322.134 211.482 327.993 203.706 327.102C192.233 325.7 194.273 304.429 195.675 296.786H188.792C188.792 296.786 176.426 345.444 215.562 336.4C214.032 344.934 223.847 358.818 214.414 375.759C229.329 379.835 243.096 380.727 254.952 375.632C252.912 372.83 259.158 344.552 246.793 324.172C244.244 320.223 231.241 320.86 229.966 320.988Z" fill="#0056EC"/>
<path d="M227.544 303.155C228.692 303.41 229.966 303.664 230.604 304.683C230.986 305.32 230.986 306.085 230.986 306.849C231.241 306.085 232.006 305.575 232.898 305.575C233.663 305.702 234.428 306.339 234.428 307.231C234.428 307.613 234.3 307.995 234.173 308.25C233.791 309.142 233.408 309.906 232.898 310.67C234.3 311.18 235.448 315.383 236.213 316.657C238.635 316.02 243.861 313.982 244.371 305.575C244.626 301.626 243.351 296.913 239.145 294.366C236.085 292.455 231.114 292.455 227.672 293.347C224.867 294.111 220.406 296.913 222.445 300.098C223.338 301.754 225.632 302.773 227.544 303.155Z" fill="#EF832B"/>
<path d="M242.459 297.805C244.116 297.296 246.156 297.55 247.048 298.951C247.813 299.97 247.685 301.372 247.94 302.645C248.068 303.282 248.323 303.919 248.705 304.301C249.215 304.811 250.107 304.938 250.872 304.938C252.784 305.066 254.697 304.811 256.481 305.066C258.266 305.32 260.178 306.467 260.688 308.123C260.943 309.014 260.815 310.161 261.198 311.052C261.708 312.453 263.237 313.218 264.512 314.109C267.317 315.892 269.611 318.185 271.396 320.86C272.416 322.516 273.308 324.427 273.436 326.465C273.563 328.503 274.965 331.05 274.583 333.088C274.2 335.254 272.033 338.056 267.954 339.457C260.815 341.75 258.521 342.769 251.765 338.693C251 338.183 249.343 336.527 248.578 335.891C247.94 335.381 247.558 334.744 247.43 333.98C246.921 332.069 247.558 329.904 248.578 328.121C249.598 326.337 251 324.809 252.02 323.026C252.657 322.007 253.167 320.733 253.039 319.586C253.039 319.077 252.912 318.695 252.53 318.313C252.275 318.058 251.765 317.93 251.382 317.803C249.853 317.548 248.195 317.803 246.921 317.166C245.646 316.529 244.881 314.873 245.263 313.6C245.518 312.708 246.283 311.944 246.411 310.925C246.666 309.524 245.901 308.25 244.626 307.358C243.479 306.594 241.949 306.212 240.547 306.085C239.909 305.957 239.145 305.83 238.507 305.448C237.87 304.938 237.487 304.047 237.487 303.282C237.742 300.607 239.909 298.697 242.459 297.805Z" fill="#EF832B"/>
<path d="M241.184 304.938C249.725 306.849 238.89 314.874 243.479 318.822C244.753 319.969 246.283 319.587 247.813 319.841C253.677 320.606 250.49 324.554 250.107 327.739C250.107 328.248 250.872 328.248 250.872 327.866C251.382 325.701 253.294 323.153 252.275 320.86C251.382 318.822 249.215 319.077 247.303 319.077C245.008 318.95 242.459 319.077 243.351 314.492C243.479 313.473 244.371 312.454 244.753 311.562C245.263 310.416 245.518 309.397 245.263 308.25C244.881 306.212 243.096 305.066 241.184 304.684C240.929 304.429 240.802 304.811 241.184 304.938Z" fill="#EF832B"/>
<path d="M223.465 294.366C230.094 291.054 236.723 291.691 242.331 296.659C242.714 297.041 243.224 296.531 242.841 296.149C237.87 290.672 229.201 289.653 223.21 294.111C223.083 294.239 223.21 294.493 223.465 294.366Z" fill="#EF832B"/>
<path d="M446.038 315.256L443.233 320.988L450.244 323.79L451.009 317.166L446.038 315.256Z" fill="#FFB9A3"/>
<path d="M450.372 296.404C434.437 303.282 440.939 320.096 450.627 318.185C455.343 317.166 457.765 302.008 457.765 302.008L450.372 296.404Z" fill="#FFB9A3"/>
<path d="M455.598 293.984C455.088 292.965 454.579 291.946 453.686 291.309C452.794 290.672 451.519 290.417 450.627 291.182C449.607 292.201 450.244 293.984 451.264 295.003C450.372 295.13 449.225 294.493 448.587 295.13C448.077 295.64 448.205 296.531 448.587 297.168C449.352 298.697 450.499 299.97 451.902 300.862C451.137 301.372 450.117 302.263 450.627 303.027C450.754 303.282 451.009 303.41 451.137 303.664C451.392 304.174 451.137 304.811 450.882 305.32C450.372 306.212 449.862 306.976 449.225 307.74C449.735 306.976 451.137 307.358 451.519 308.123C451.902 309.014 451.519 310.033 451.009 310.67C450.627 311.052 450.244 311.434 449.735 311.434C449.352 311.562 447.312 317.548 448.842 318.695C450.754 320.096 457.001 318.822 457.893 317.294C458.785 318.313 460.188 319.077 461.462 318.822C462.737 318.567 463.757 316.911 463.119 315.765C464.522 316.275 466.306 315.765 467.326 314.619C468.346 313.472 468.473 311.689 467.709 310.288C468.473 310.033 468.601 309.014 468.473 308.25C468.091 306.594 466.816 305.32 465.159 304.811C465.924 304.811 466.561 304.046 466.689 303.155C466.689 302.391 466.306 301.626 465.796 300.989C464.267 299.206 462.482 298.697 460.315 298.315C457.893 298.187 456.618 295.894 455.598 293.984Z" fill="#4A49CA"/>
<path d="M440.684 464.285C440.684 464.285 431.378 468.744 430.103 470.145C430.103 470.145 448.46 470.909 449.862 470.145C451.264 469.253 446.93 464.285 446.93 464.285H440.684Z" fill="#0C2340"/>
<path d="M475.357 459.318C475.357 459.318 467.199 465.559 466.179 467.215C466.179 467.215 485.555 464.285 485.555 463.139C485.555 461.865 481.476 458.044 481.476 458.044L475.357 459.318Z" fill="#0C2340"/>
<path d="M449.735 378.052C449.352 379.963 436.605 430.276 473.19 460.464L483.771 458.044C483.771 458.044 471.405 446.453 465.669 425.818C460.188 406.202 464.522 404.291 467.836 393.464C471.533 381.491 468.728 372.83 468.728 372.83L449.735 378.052Z" fill="#D8742A"/>
<path d="M432.27 377.924C426.534 391.681 416.591 438.81 438.262 465.304H449.097C449.097 465.304 440.556 456.006 439.664 434.352C438.772 412.698 444.253 403.272 448.077 396.012C451.902 388.879 455.598 376.778 455.598 376.778L432.27 377.924Z" fill="#EF832B"/>
<path d="M424.622 292.2C421.69 302.263 420.797 320.987 435.202 328.503L444.89 326.21C444.89 326.21 427.554 317.166 431.251 294.111L424.622 292.2Z" fill="#0B43A4"/>
<path d="M398.107 286.978L405.628 286.086C405.628 286.086 404.736 317.421 440.939 320.096C468.601 322.134 470.768 373.976 470.768 373.976C461.845 379.963 446.93 381.746 427.681 380.472C427.681 380.472 428.956 343.406 425.897 333.343C425.897 333.343 395.812 323.79 398.107 286.978Z" fill="#0056EC"/>
<path d="M388.929 281.374C387.654 282.902 393.008 284.685 398.107 287.105L404.608 286.341C404.608 286.341 404.736 285.067 404.608 283.666C404.481 282.265 403.843 281.501 403.078 282.647C402.314 283.794 398.999 284.176 397.469 283.157C395.94 282.01 390.203 279.845 388.929 281.374Z" fill="#FFB9A3"/>
<path d="M424.622 292.2C422.2 289.78 422.837 290.035 422.837 290.035L430.231 291.691C430.231 291.691 431.888 288.124 433.163 287.997C434.565 287.87 432.143 290.417 432.653 291.436C433.163 292.328 431.123 294.238 431.123 294.238L424.622 292.2Z" fill="#FFB9A3"/>
<path d="M459.678 297.423C461.207 297.805 462.737 297.933 464.012 298.952C465.287 299.971 465.797 301.754 464.904 303.155C464.522 303.792 465.542 304.301 465.924 303.792C467.071 302.263 466.816 300.225 465.669 298.824C464.394 297.168 461.845 296.531 459.805 296.786C459.423 296.786 459.295 297.423 459.678 297.423Z" fill="#4A49CA"/>
<path d="M466.306 311.052C467.326 311.689 468.091 312.581 467.709 313.855C467.326 315.001 466.179 315.638 465.287 316.275C464.777 316.53 465.287 317.294 465.669 317.039C467.071 316.275 468.474 315.256 468.728 313.6C468.856 312.199 467.964 311.052 466.689 310.415C466.306 310.161 465.924 310.798 466.306 311.052Z" fill="#4A49CA"/>
<path d="M449.607 318.695C453.049 320.733 457.765 320.478 460.57 317.548C460.952 317.166 460.442 316.529 460.06 316.784C457.001 319.077 453.559 319.714 449.989 318.185C449.607 318.058 449.352 318.44 449.607 318.695Z" fill="#4A49CA"/>
<path d="M466.816 299.716C468.728 301.499 466.816 304.047 465.542 305.702C465.287 306.085 465.669 306.467 466.051 306.212C467.199 305.193 468.219 304.046 468.473 302.391C468.601 301.244 468.091 300.098 467.071 299.461C466.816 299.334 466.689 299.588 466.816 299.716Z" fill="#4A49CA"/>
<path d="M251.127 66.9999L248.195 59.7395L277.005 48.7852L251.127 66.9999Z" fill="#0B43A4"/>
<path d="M252.657 62.5418L277.005 48.7852L260.051 65.9809L252.657 62.5418Z" fill="#5193F4"/>
<path d="M241.567 56.6825L277.005 48.7852L248.195 59.7395L241.567 56.6825Z" fill="#5193F4"/>
<path d="M252.657 62.5417L251.127 66.9999L255.589 63.9429L252.657 62.5417Z" fill="#0056EC"/>
<path d="M247.813 65.9809C240.292 64.7071 230.094 72.3497 234.428 80.247C235.958 82.9219 243.606 81.7755 243.096 78.8458C242.841 77.4447 241.057 76.8078 239.654 76.9352C231.241 77.9542 230.859 84.9599 231.241 86.7432C233.153 96.0416 247.43 92.8572 252.147 91.5834" stroke="#C8DBFB" stroke-miterlimit="10" stroke-linecap="round" stroke-linejoin="round" stroke-dasharray="4 4"/>
</svg>
